#!OML:ASF Y:\EmotionMaleHayes\Project 1\Capture day 1\Session 1\Male1.ASF
:FULLY-SPECIFIED
:DEGREES
1479
root 47.7554 16.0702 1.37316 899.043 -1.43558 893.454
lowerback 6.11793 0.311831 -9.46414
upperback 7.76264 -0.707434 0.493851
thorax 4.82485 -1.22528 5.81018
lowerneck -19.7528 1.79253 5.01132
upperneck 27.2347 1.41751 2.02518
head 12.3323 1.82633 0.2368
rclavicle -1.2921e-015 -9.14409e-015
rhumerus -31.5832 9.45738 -85.4566
rradius 26.7278
rwrist 6.31892
rhand -10.7864 -27.1551
rfingers 7.12502
rthumb 15.2263 -56.5748
lclavicle -1.2921e-015 -9.14409e-015
lhumerus -12.0507 -16.9472 88.9803
lradius 43.9314
lwrist 6.37027
lhand -24.4545 -29.7873
lfingers 7.12502
lthumb 2.03842 0.182754
rfemur -28.6618 -1.48005 10.7273
rtibia 31.7042
rfoot -7.99847 -5.32903
rtoes 19.2705
lfemur 21.9232 -3.00677 -28.2224
ltibia 26.3927
lfoot -15.0401 -3.62322
ltoes -13.9306
1480
root 47.7828 16.0738 1.21346 899.113 -1.31982 893.969
lowerback 5.98325 0.191129 -8.92253
upperback 7.81771 -0.84404 0.750735
thorax 4.97107 -1.28082 5.77693
lowerneck -19.787 1.93814 5.09793
upperneck 27.3766 1.62524 1.96317
head 12.4007 1.92441 0.236018
rclavicle -9.34288e-015 1.70955e-014
rhumerus -30.7925 10.3109 -85.5077
rradius 27.0041
rwrist 5.59113
rhand -11.2556 -27.3246
rfingers 7.12502
rthumb 14.7742 -56.778
lclavicle -9.34288e-015 1.70955e-014
lhumerus -13.0091 -17.3968 89.0251
lradius 43.2717
lwrist 7.43299
lhand -24.503 -29.7772
lfingers 7.12502
lthumb 1.99156 0.193213
rfemur -28.3259 -1.49829 11.5656
rtibia 32.0917
rfoot -8.65435 -4.95305
rtoes 19.3188
lfemur 21.2779 -2.96228 -27.5361
ltibia 28.3294
lfoot -13.442 -3.2926
ltoes -14.9199
1481
root 47.8091 16.0938 1.05199 898.828 -1.26233 894.368
lowerback 6.2367 0.162433 -8.542
upperback 7.9209 -0.92537 0.983802
thorax 4.94475 -1.32196 5.81311
lowerneck -19.7973 2.04534 5.33968
upperneck 27.664 1.80233 1.71563
head 12.5262 2.01015 0.137054
rclavicle -5.36719e-015 -1.55052e-014
rhumerus -30.1123 11.018 -85.5196
rradius 27.3256
rwrist 4.82615
rhand -11.6314 -27.4819
rfingers 7.12502
rthumb 14.4122 -56.9615
lclavicle -5.36719e-015 -1.55052e-014
lhumerus -13.6389 -16.2709 89.4392
lradius 41.8136
lwrist 6.72113
lhand -24.1538 -30.0076
lfingers 7.12502
lthumb 2.32885 -0.040544
rfemur -27.2383 -1.05882 12.1863
rtibia 31.99
rfoot -9.38512 -4.95347
rtoes 19.2413
lfemur 20.925 -2.45512 -26.6075
ltibia 30.0511
lfoot -11.4008 -3.1504
ltoes -18.2624
1482
root 47.8454 16.1096 0.904062 898.813 -1.48511 894.73
lowerback 6.42518 0.0951436 -8.22976
upperback 7.88741 -1.02925 1.22504
thorax 4.81562 -1.35731 5.89906
lowerneck -19.8838 2.0659 5.45333
upperneck 28.0801 1.87122 1.59575
head 12.7157 2.06137 0.0947353
rclavicle -1.92821e-014 -4.37326e-015
rhumerus -29.5638 11.6161 -85.5295
rradius 27.7584
rwrist 3.79249
rhand -12.2829 -27.8059
rfingers 7.12502
rthumb 13.7844 -57.3292
lclavicle -1.92821e-014 -4.37326e-015
lhumerus -14.3393 -15.1993 89.9843
lradius 40.2699
lwrist 6.29418
lhand -23.9604 -30.4131
lfingers 7.12502
lthumb 2.51558 -0.448202
rfemur -26.5287 -0.856283 12.7432
rtibia 32.0222
rfoot -10.1068 -5.05688
rtoes 18.6428
lfemur 19.8437 -2.3375 -25.7269
ltibia 32.5223
lfoot -9.37907 -3.28973
ltoes -15.4933
1483
root 47.8826 16.1241 0.756745 898.822 -1.68376 895.038
lowerback 6.57479 0.0511366 -7.95059
upperback 7.83881 -1.09454 1.43591
thorax 4.68632 -1.37277 5.97047
lowerneck -19.9439 2.08034 5.40957
upperneck 28.4215 1.91211 1.72142
head 12.8666 2.1152 0.167316
rclavicle 1.98785e-015 2.14687e-014
rhumerus -29.0028 11.9744 -85.4756
rradius 28.2106
rwrist 2.71689
rhand -12.9663 -28.0314
rfingers 7.12502
rthumb 13.1257 -57.5983
lclavicle 1.98785e-015 2.14687e-014
lhumerus -15.1375 -15.917 90.3562
lradius 39.1282
lwrist 7.54453
lhand -24.1636 -30.0361
lfingers 7.12502
lthumb 2.31938 -0.0689616
rfemur -25.943 -1.01237 13.2646
rtibia 32.1649
rfoot -10.7314 -4.89383
rtoes 17.7342
lfemur 18.828 -2.25465 -24.9317
ltibia 34.8592
lfoot -7.18636 -3.49354
ltoes -10.6637
1484
root 47.9144 16.1381 0.603745 898.767 -1.73685 895.325
lowerback 6.66749 0.0386056 -7.63682
upperback 7.83213 -1.11593 1.61615
thorax 4.62438 -1.37105 5.98664
lowerneck -19.9489 2.16752 5.34017
upperneck 28.7025 2.04378 1.93839
head 12.983 2.21636 0.293702
rclavicle 1.05356e-014 1.03368e-014
rhumerus -28.3504 12.0634 -85.2881
rradius 28.6103
rwrist 1.90967
rhand -13.1701 -27.9348
rfingers 7.12502
rthumb 12.9293 -57.5143
lclavicle 1.05356e-014 1.03368e-014
lhumerus -15.8903 -16.3773 90.6751
lradius 37.929
lwrist 7.61069
lhand -23.9507 -28.7668
lfingers 7.12502
lthumb 2.52502 1.19795
rfemur -25.3027 -1.18792 13.764
rtibia 32.2726
rfoot -11.3445 -4.65074
rtoes 16.7876
lfemur 17.9353 -2.27755 -24.4254
ltibia 37.1502
lfoot -5.16854 -3.3806
ltoes -6.57432
1485
root 47.9545 16.1485 0.456773 898.824 -1.81407 895.865
lowerback 6.68912 -0.0169452 -7.21013
upperback 7.78622 -1.1817 1.90658
thorax 4.56734 -1.38524 6.05603
lowerneck -20.0592 2.21666 5.30107
upperneck 29.0639 2.1306 2.0573
head 13.1555 2.2892 0.373737
rclavicle -1.11319e-014 -9.54166e-015
rhumerus -27.6488 12.2611 -85.0745
rradius 28.9934
rwrist 1.10218
rhand -13.2252 -27.8607
rfingers 7.12502
rthumb 12.8761 -57.4435
lclavicle -1.11319e-014 -9.54166e-015
lhumerus -16.1636 -15.5521 91.0114
lradius 35.8366
lwrist 6.27623
lhand -23.2217 -28.1644
lfingers 7.12502
lthumb 3.22902 1.79092
rfemur -24.8074 -0.993164 14.5981
rtibia 32.3667
rfoot -12.0803 -4.75031
rtoes 16.2704
lfemur 16.8555 -2.00472 -23.2468
ltibia 39.2834
lfoot -3.11608 -3.42061
ltoes -4.00017
1486
root 47.9996 16.1596 0.307118 898.886 -1.75463 896.473
lowerback 6.59261 -0.0129153 -6.75334
upperback 7.76845 -1.15977 2.17308
thorax 4.5908 -1.35851 6.07763
lowerneck -19.8719 2.14777 5.07481
upperneck 29.1157 2.07074 2.3199
head 13.1303 2.28533 0.503684
rclavicle -2.04748e-014 9.54166e-015
rhumerus -26.9317 12.3532 -84.9619
rradius 29.3489
rwrist 0.437458
rhand -13.3661 -27.9246
rfingers 7.12502
rthumb 12.7403 -57.5159
lclavicle -2.04748e-014 9.54166e-015
lhumerus -16.8869 -15.648 91.2788
lradius 34.3588
lwrist 5.88558
lhand -22.7546 -27.6798
lfingers 7.12502
lthumb 3.6801 2.2682
rfemur -24.2902 -0.583257 15.5916
rtibia 32.3796
rfoot -12.7451 -4.83164
rtoes 16.2294
lfemur 15.8293 -1.6198 -21.9783
ltibia 41.247
lfoot -1.17577 -3.55476
ltoes -2.30674
1487
root 48.0331 16.1815 0.16806 898.689 -2.12581 896.78
lowerback 6.95271 -0.0850807 -6.33026
upperback 7.78992 -1.2851 2.24656
thorax 4.4181 -1.40402 5.92431
lowerneck -20.0621 2.06186 5.27508
upperneck 29.41 1.91739 2.23624
head 13.2954 2.24731 0.423418
rclavicle 1.19271e-015 8.74653e-015
rhumerus -26.2512 12.4119 -85.0232
rradius 29.7495
rwrist 0.0704373
rhand -13.7464 -28.3421
rfingers 7.12502
rthumb 12.3736 -57.9559
lclavicle 1.19271e-015 8.74653e-015
lhumerus -17.4621 -15.5263 91.4642
lradius 32.775
lwrist 4.87403
lhand -22.1469 -26.9404
lfingers 7.12502
lthumb 4.26694 2.99659
rfemur -23.3107 -0.868031 16.0161
rtibia 32.2165
rfoot -13.2619 -4.6895
rtoes 16.3933
lfemur 14.9808 -1.83341 -21.4177
ltibia 43.2365
lfoot 0.849545 -3.19877
ltoes 2.43708
